<?xml version="1.0" encoding="UTF-8"?>
<svg id="Layer_1" data-name="Layer 1" xmlns="http://www.w3.org/2000/svg" viewBox="0 0 18.5 21.5">
  <path d="M18.5,6.5V0h-3.5v3h-3.53c-.13-1.12-1.07-2-2.22-2s-2.1.88-2.22,2h-3.53V0H0v6.5h3.5v-3h3.53c.12,1.04.94,1.86,1.97,1.97v10.55c-1.04.12-1.86.94-1.97,1.97h-3.53v-3H0v6.5h3.5v-3h3.53c.13,1.12,1.07,2,2.22,2s2.1-.88,2.22-2h3.53v3h3.5v-6.5h-3.5v3h-3.53c-.12-1.04-.94-1.86-1.97-1.97V5.47c1.04-.12,1.86-.94,1.97-1.97h3.53v3h3.5ZM3,6H.5V.5h2.5v5.5ZM3,21H.5v-5.5h2.5v5.5ZM15.5,15.5h2.5v5.5h-2.5v-5.5ZM11,18.25c0,.96-.79,1.75-1.75,1.75s-1.75-.79-1.75-1.75.79-1.75,1.75-1.75,1.75.79,1.75,1.75ZM9.25,5c-.96,0-1.75-.79-1.75-1.75s.79-1.75,1.75-1.75,1.75.79,1.75,1.75-.79,1.75-1.75,1.75ZM15.5.5h2.5v5.5h-2.5V.5Z"/>
</svg>